<svg 
  xmlns="http://www.w3.org/2000/svg" 
  width="27.16" 
  height="23.374" 
  viewBox="0 0 27.16 23.374">
  <g 
    id="Group_565" 
    data-name="Group 565" 
    transform="translate(-4634.84 -575.626)">
      <g 
        id="Path_39" 
        data-name="Path 39" 
        transform="translate(4634.84 578.54) rotate(-8)" 
        fill="none">
        <path 
          d="M4,0H16.939a4,4,0,0,1,4,4V14.8a4,4,0,0,1-4,4H4a4,4,0,0,1-4-4V4A4,4,0,0,1,4,0Z" 
          stroke="none"/>
        <path 
          d="M 4 1.999998092651367 C 2.897199630737305 1.999998092651367 2 2.897197723388672 2 3.999998092651367 L 2 14.80451774597168 C 2 15.90731811523438 2.897199630737305 16.80451774597168 4 16.80451774597168 L 16.93860054016113 16.80451774597168 C 18.04140090942383 16.80451774597168 18.93860054016113 15.90731811523438 18.93860054016113 14.80451774597168 L 18.93860054016113 3.999998092651367 C 18.93860054016113 2.897197723388672 18.04140090942383 1.999998092651367 16.93860054016113 1.999998092651367 L 4 1.999998092651367 M 4 -1.9073486328125e-06 L 16.93860054016113 -1.9073486328125e-06 C 19.14773941040039 -1.9073486328125e-06 20.93860054016113 1.790857315063477 20.93860054016113 3.999998092651367 L 20.93860054016113 14.80451774597168 C 20.93860054016113 17.01365852355957 19.14773941040039 18.80451774597168 16.93860054016113 18.80451774597168 L 4 18.80451774597168 C 1.790861129760742 18.80451774597168 0 17.01365852355957 0 14.80451774597168 L 0 3.999998092651367 C 0 1.790857315063477 1.790861129760742 -1.9073486328125e-06 4 -1.9073486328125e-06 Z" 
          stroke="none" 
          fill="rgba(112,112,112,0.51)"/>
      </g>
    <g 
      id="Group_372" 
      data-name="Group 372" 
      transform="translate(4641.272 581.195)">
      <g 
        id="Rectangle_141" 
        data-name="Rectangle 141" 
        transform="translate(-0.272 -0.195)" 
        fill="#fff" 
        stroke="rgba(112,112,112,0.51)" 
        stroke-width="2">
          <rect width="21" height="18" rx="4" stroke="none"/>
          <rect x="1" y="1" width="19" height="16" rx="3" fill="none"/>
      </g>
      <path 
        id="Path_7" 
        data-name="Path 7" 
        d="M0,.317S2.043-3.511,4.294-3.511,6.452,1.193,9,.317s3.744-8.28,5.493-7.331S18.841.317,18.841.317" 
        transform="translate(0.915 12.359)" 
        fill="none" 
        stroke="rgba(112,112,112,0.51)" 
        stroke-width="2"/>
      <circle 
        id="Ellipse_29" 
        data-name="Ellipse 29" 
        cx="1.5" 
        cy="1.5" 
        r="1.5" 
        transform="translate(2.728 2.805)" 
        fill="rgba(112,112,112,0.5)"/>
    </g>
  </g>
</svg>
