<svg 
  xmlns="http://www.w3.org/2000/svg" 
  width="22.577" 
  height="26.247" 
  viewBox="0 0 22.577 26.247">
  <g 
    id="Group_568" 
    data-name="Group 568" 
    transform="translate(-213.634 -266.753)">
    <g 
      id="Group_382" 
      data-name="Group 382" 
      transform="translate(213.634 266.753)">
      <g 
        id="Group_380" 
        data-name="Group 380">
        <g 
          id="Path_11" 
          data-name="Path 11" 
          transform="translate(0 11.119)" 
          fill="#fff">
          <path 
            d="M9.436,0a9.436,9.436,0,0,1,9.436,9.436c0,5.211-4.224,4.552-9.436,4.552S0,14.647,0,9.436A9.436,9.436,0,0,1,9.436,0Z" 
            stroke="none"/>
          <path 
            d="M 9.435518264770508 1.999995231628418 C 5.33555793762207 1.999995231628418 1.999998092651367 5.335556030273438 1.999998092651367 9.435515403747559 C 1.999998092651367 11.10657501220703 2.522558212280273 11.39309501647949 2.773687362670898 11.53078556060791 C 3.550658226013184 11.95678520202637 5.055977821350098 12.01422595977783 6.426028251647949 12.01422595977783 C 6.872498512268066 12.01422595977783 7.334407806396484 12.0080451965332 7.823428153991699 12.00150585174561 C 8.343838691711426 11.99454593658447 8.8819580078125 11.98734569549561 9.435518264770508 11.98734569549561 C 9.989248275756836 11.98734569549561 10.52730846405029 11.99454593658447 11.04765892028809 12.00150585174561 C 11.53659820556641 12.0080451965332 11.99842834472656 12.01422595977783 12.44500827789307 12.01422595977783 C 13.81487846374512 12.01422595977783 15.32003784179688 11.9567756652832 16.09716796875 11.53067588806152 C 16.34835815429688 11.39294528961182 16.87103843688965 11.10635566711426 16.87103843688965 9.435515403747559 C 16.87103843688965 5.335556030273438 13.53547859191895 1.999995231628418 9.435518264770508 1.999995231628418 M 9.435518264770508 -4.76837158203125e-06 C 14.64660835266113 -4.76837158203125e-06 18.87103843688965 4.224425315856934 18.87103843688965 9.435515403747559 C 18.87103843688965 14.64661598205566 14.64660835266113 13.98734569549561 9.435518264770508 13.98734569549561 C 4.224430084228516 13.98734569549561 -1.9073486328125e-06 14.64661598205566 -1.9073486328125e-06 9.435515403747559 C -1.9073486328125e-06 4.224425315856934 4.224428176879883 -4.76837158203125e-06 9.435518264770508 -4.76837158203125e-06 Z" 
            stroke="none" 
            fill="rgba(112,112,112,0.48)"/>
        </g>
        <g 
          id="Ellipse_32" 
          data-name="Ellipse 32" 
          transform="translate(4.045)" 
          fill="none" 
          stroke="rgba(112,112,112,0.48)" 
          stroke-width="2">
          <circle 
            cx="5.096" 
            cy="5.096" 
            r="5.096" 
            stroke="none"/>
          <circle 
            cx="5.096" 
            cy="5.096" 
            r="4.096" 
            fill="none"/>
        </g>
      </g>
      <g 
        id="Group_383" 
        data-name="Group 383" 
        transform="translate(11.458 15.128)">
        <rect 
          id="Rectangle_143" 
          data-name="Rectangle 143" 
          width="12" 
          height="12" 
          transform="translate(-0.881 -0.881)" 
          fill="#fff"/>
        <g 
          id="Group_381" 
          data-name="Group 381" 
          transform="translate(0.193 1.119)">
          <line 
            id="Line_224" 
            data-name="Line 224" 
            y2="9" 
            transform="translate(4.926)" 
            fill="none" 
            stroke="rgba(112,112,112,0.5)" 
            stroke-width="2"/>
          <line 
            id="Line_225" 
            data-name="Line 225" 
            y2="10" 
            transform="translate(10 4.44) rotate(90)" 
            fill="none" 
            stroke="rgba(112,112,112,0.5)" 
            stroke-width="2"/>
        </g>
      </g>
    </g>
  </g>
</svg>
