<svg 
  xmlns="http://www.w3.org/2000/svg" 
  width="18.423" 
  height="23.37" 
  viewBox="0 0 18.423 23.37">
  <g 
    id="Group_567" 
    data-name="Group 567" 
    transform="translate(-173.577 -266.63)">
    <g 
      id="Group_378" 
      data-name="Group 378" 
      transform="translate(-4417.138 -316)">
      <g 
        id="Path_10" 
        data-name="Path 10" 
        transform="translate(4590.714 582.63)" 
        fill="none">
        <path 
          d="M9.212,0c5.087,0,9.212,3.548,9.212,7.925S10.819,23.37,8.988,23.37,0,12.3,0,7.925,4.124,0,9.212,0Z" 
          stroke="none"/>
        <path 
          d="M 9.21160888671875 1.999998092651367 C 5.235109329223633 1.999998092651367 1.999998092651367 4.657817840576172 1.999998092651367 7.924727439880371 C 1.999998092651367 9.342227935791016 3.223918914794922 12.34802722930908 5.118068695068359 15.58235740661621 C 6.742815017700195 18.35666084289551 8.198783874511719 20.2008056640625 9.007073402404785 21.02586555480957 C 9.85053825378418 20.20625495910645 11.38494491577148 18.35835647583008 13.11470890045166 15.56567764282227 C 15.55672836303711 11.62305736541748 16.42321968078613 8.985457420349121 16.42321968078613 7.924727439880371 C 16.42321968078613 4.657817840576172 13.18810844421387 1.999998092651367 9.21160888671875 1.999998092651367 M 9.21160888671875 -1.9073486328125e-06 C 14.29903888702393 -1.9073486328125e-06 18.42321968078613 3.548017501831055 18.42321968078613 7.924727439880371 C 18.42321968078613 12.30142784118652 10.81915855407715 23.36999702453613 8.988398551940918 23.36999702453613 C 7.157649040222168 23.36999702453613 -1.9073486328125e-06 12.30142784118652 -1.9073486328125e-06 7.924727439880371 C -1.9073486328125e-06 3.548017501831055 4.124178886413574 -1.9073486328125e-06 9.21160888671875 -1.9073486328125e-06 Z" 
          stroke="none" 
          fill="rgba(112,112,112,0.5)"/>
      </g>
    </g>
    <g 
      id="Ellipse_31" 
      data-name="Ellipse 31" 
      transform="translate(179 271)" 
      fill="none" 
      stroke="rgba(112,112,112,0.5)" 
      stroke-width="2">
      <circle 
        cx="3.75" 
        cy="3.75" 
        r="3.75" 
        stroke="none"/>
      <circle 
        cx="3.75" 
        cy="3.75" 
        r="2.75" 
        fill="none"/>
    </g>
  </g>
</svg>
