<svg 
  xmlns="http://www.w3.org/2000/svg" 
  width="29.455" 
  height="24.899" 
  viewBox="0 0 29.455 24.899">
  <g 
    id="Group_566" 
    data-name="Group 566" 
    transform="translate(-4609.355 -603.878)">
    <g 
      id="Path_8" 
      data-name="Path 8" 
      transform="translate(4612 606.95)" 
      fill="none">
      <path 
        d="M12.05,0c7.076,0,14.76,8.49,14.76,9.466s-7.684,9.287-14.76,9.287S-2.645,11.511-2.645,9.466,4.974,0,12.05,0Z" 
        stroke="none"/>
      <path 
        d="M 12.0501594543457 1.999996185302734 C 8.684169769287109 1.999996185302734 5.358940124511719 4.036735534667969 3.676389694213867 5.250805854797363 C 2.509799957275391 6.092576026916504 1.402379989624023 7.065005302429199 0.5581092834472656 7.988955497741699 C -0.07658958435058594 8.683549880981445 -0.4126834869384766 9.184514999389648 -0.5662364959716797 9.462612152099609 C -0.4120731353759766 9.736064910888672 -0.07626724243164062 10.22669982910156 0.5551395416259766 10.90390586853027 C 1.397468566894531 11.80733585357666 2.503580093383789 12.7577953338623 3.669719696044922 13.58019542694092 C 5.350118637084961 14.76528549194336 8.673379898071289 16.75339508056641 12.0501594543457 16.75339508056641 C 14.40024948120117 16.75339508056641 17.33581924438477 15.53045558929443 20.31610870361328 13.30986595153809 C 22.28052711486816 11.84619331359863 23.7551441192627 10.32939338684082 24.47718620300293 9.457530975341797 C 23.75682258605957 8.569526672363281 22.27989196777344 7.018864631652832 20.30921936035156 5.519125938415527 C 17.3272590637207 3.249775886535645 14.39413928985596 1.999996185302734 12.0501594543457 1.999996185302734 M 12.0501594543457 -3.814697265625e-06 C 19.1262092590332 -3.814697265625e-06 26.81019020080566 8.490435600280762 26.81019020080566 9.466375350952148 C 26.81019020080566 10.44230556488037 19.1262092590332 18.75339508056641 12.0501594543457 18.75339508056641 C 4.974109649658203 18.75339508056641 -2.64453125 11.5106954574585 -2.64453125 9.466375350952148 C -2.64453125 7.422045707702637 4.974109649658203 -3.814697265625e-06 12.0501594543457 -3.814697265625e-06 Z" 
        stroke="none" 
        fill="rgba(112,112,112,0.5)"/>
    </g>
    <g 
      id="Path_9" 
      data-name="Path 9" 
      transform="translate(4618.583 610.827)" 
      fill="none">
      <path 
        d="M5.5,0A5.5,5.5,0,0,1,11,5.5,5.7,5.7,0,0,1,9.862,8.851,5.347,5.347,0,0,1,5.5,11a5.5,5.5,0,0,1,0-11Z" 
        stroke="none"/>
      <path 
        d="M 5.5 2 C 3.570089817047119 2 2 3.570089817047119 2 5.5 C 2 7.429909706115723 3.570089817047119 9 5.5 9 C 6.771279811859131 9 7.792150020599365 8.343709945678711 8.202680587768555 7.733940124511719 L 8.217010498046875 7.712940216064453 C 8.758520126342773 6.930280208587646 9 6.247789859771729 9 5.5 C 9 3.570089817047119 7.429909706115723 2 5.5 2 M 5.5 0 C 8.537569999694824 0 11 2.462430000305176 11 5.5 C 11 6.648200035095215 10.64815998077393 7.71422004699707 9.861720085144043 8.850890159606934 C 9.056220054626465 10.04732036590576 7.389369964599609 11 5.5 11 C 2.462430000305176 11 0 8.537569999694824 0 5.5 C 0 2.462430000305176 2.462430000305176 0 5.5 0 Z" 
        stroke="none" 
        fill="rgba(112,112,112,0.5)"/>
    </g>
    <line 
      id="Line_223" 
      data-name="Line 223" 
      y1="23.488" 
      x2="23.366" 
      transform="translate(4612.399 604.583)" 
      fill="none" 
      stroke="rgba(112,112,112,0.5)" 
      stroke-width="2"/>
  </g>
</svg>
