<svg xmlns="http://www.w3.org/2000/svg" width="60" height="71" viewBox="0 0 60 71">
  <g id="Group_471" data-name="Group 471" transform="translate(1382 3478)">
    <g id="Rectangle_188" data-name="Rectangle 188" transform="translate(-1382 -3478)" fill="none" stroke="rgba(112,112,112,0.5)" stroke-width="2">
      <rect width="60" height="71" rx="8" stroke="none"/>
      <rect x="1" y="1" width="58" height="69" rx="7" fill="none"/>
    </g>
    <g id="Group_470" data-name="Group 470">
      <g id="Group_465" data-name="Group 465" transform="translate(-1561.18 -3705.838)">
        <g id="Group_382" data-name="Group 382" transform="translate(213.634 266.753)">
          <g id="Group_380" data-name="Group 380">
            <g id="Path_11" data-name="Path 11" transform="translate(0 11.119)" fill="none">
              <path d="M9.436,0a9.436,9.436,0,0,1,9.436,9.436c0,5.211-4.224,4.552-9.436,4.552S0,14.647,0,9.436A9.436,9.436,0,0,1,9.436,0Z" stroke="none"/>
              <path d="M 9.435518264770508 1.999995231628418 C 5.33555793762207 1.999995231628418 1.999998092651367 5.335556030273438 1.999998092651367 9.435515403747559 C 1.999998092651367 11.10657501220703 2.522558212280273 11.39309501647949 2.773687362670898 11.53078556060791 C 3.550658226013184 11.95678520202637 5.055977821350098 12.01422595977783 6.426028251647949 12.01422595977783 C 6.872498512268066 12.01422595977783 7.334407806396484 12.0080451965332 7.823428153991699 12.00150585174561 C 8.343838691711426 11.99454593658447 8.8819580078125 11.98734569549561 9.435518264770508 11.98734569549561 C 9.989248275756836 11.98734569549561 10.52730846405029 11.99454593658447 11.04765892028809 12.00150585174561 C 11.53659820556641 12.0080451965332 11.99842834472656 12.01422595977783 12.44500827789307 12.01422595977783 C 13.81487846374512 12.01422595977783 15.32003784179688 11.9567756652832 16.09716796875 11.53067588806152 C 16.34835815429688 11.39294528961182 16.87103843688965 11.10635566711426 16.87103843688965 9.435515403747559 C 16.87103843688965 5.335556030273438 13.53547859191895 1.999995231628418 9.435518264770508 1.999995231628418 M 9.435518264770508 -4.76837158203125e-06 C 14.64660835266113 -4.76837158203125e-06 18.87103843688965 4.224425315856934 18.87103843688965 9.435515403747559 C 18.87103843688965 14.64661598205566 14.64660835266113 13.98734569549561 9.435518264770508 13.98734569549561 C 4.224430084228516 13.98734569549561 -1.9073486328125e-06 14.64661598205566 -1.9073486328125e-06 9.435515403747559 C -1.9073486328125e-06 4.224425315856934 4.224428176879883 -4.76837158203125e-06 9.435518264770508 -4.76837158203125e-06 Z" stroke="none" fill="rgba(112,112,112,0.5)"/>
            </g>
            <g id="Ellipse_32" data-name="Ellipse 32" transform="translate(4.045)" fill="none" stroke="rgba(112,112,112,0.5)" stroke-width="2">
              <circle cx="5.096" cy="5.096" r="5.096" stroke="none"/>
              <circle cx="5.096" cy="5.096" r="4.096" fill="none"/>
            </g>
          </g>
        </g>
      </g>
      <g id="Rectangle_186" data-name="Rectangle 186" transform="translate(-1375 -3438)" fill="none" stroke="rgba(112,112,112,0.49)" stroke-width="2">
        <rect width="20" height="24" rx="6" stroke="none"/>
        <rect x="1" y="1" width="18" height="22" rx="5" fill="none"/>
      </g>
      <line id="Line_244" data-name="Line 244" x2="10" transform="translate(-1370.5 -3425.5)" fill="none" stroke="rgba(112,112,112,0.5)" stroke-width="1"/>
      <line id="Line_245" data-name="Line 245" x2="8" transform="translate(-1370.5 -3430.5)" fill="none" stroke="rgba(112,112,112,0.5)" stroke-width="1"/>
      <line id="Line_246" data-name="Line 246" x2="6" transform="translate(-1370.5 -3420.5)" fill="none" stroke="rgba(112,112,112,0.5)" stroke-width="1"/>
      <g id="Rectangle_187" data-name="Rectangle 187" transform="matrix(0.574, -0.819, 0.819, 0.574, -1362.41, -3430.201)" fill="none" stroke="rgba(112,112,112,0.5)" stroke-width="1">
        <rect width="16" height="2" rx="1" stroke="none"/>
        <rect x="0.5" y="0.5" width="15" height="1" rx="0.5" fill="none"/>
      </g>
      <g id="Group_466" data-name="Group 466" transform="translate(-1520.122 -3736.63)">
        <g id="Group_378" data-name="Group 378" transform="translate(-4417.138 -316)">
          <g id="Path_10" data-name="Path 10" transform="translate(4590.714 582.63)" fill="none">
            <path d="M8.988-1.049c5.087,0,9.435,4.6,9.435,8.974S10.819,23.37,8.988,23.37,0,12.3,0,7.925A9.285,9.285,0,0,1,8.988-1.049Z" stroke="none"/>
            <path d="M 8.988398551940918 0.9506797790527344 C 7.156699180603027 0.9506797790527344 5.39811897277832 1.740179061889648 4.036599159240723 3.173738479614258 C 2.76133918762207 4.516469955444336 1.999998092651367 6.292539596557617 1.999998092651367 7.924729347229004 C 1.999998092651367 9.342228889465332 3.223918914794922 12.34802913665771 5.118068695068359 15.58235931396484 C 6.742815017700195 18.35666275024414 8.198783874511719 20.20080757141113 9.007073402404785 21.0258674621582 C 9.85053825378418 20.20625686645508 11.38494491577148 18.35835838317871 13.11470890045166 15.5656795501709 C 15.55672836303711 11.62305927276611 16.42321968078613 8.985459327697754 16.42321968078613 7.924729347229004 C 16.42321968078613 6.344169616699219 15.59596920013428 4.585958480834961 14.21031951904297 3.22150993347168 C 12.74475860595703 1.778369903564453 10.84143829345703 0.9506797790527344 8.988398551940918 0.9506797790527344 M 8.988398551940918 -1.049320220947266 C 14.07582855224609 -1.049320220947266 18.42321968078613 3.548019409179688 18.42321968078613 7.924729347229004 C 18.42321968078613 12.30142974853516 10.81915855407715 23.36999893188477 8.988398551940918 23.36999893188477 C 7.157649040222168 23.36999893188477 -1.9073486328125e-06 12.30142974853516 -1.9073486328125e-06 7.924729347229004 C -1.9073486328125e-06 3.548019409179688 3.900968551635742 -1.049320220947266 8.988398551940918 -1.049320220947266 Z" stroke="none" fill="rgba(112,112,112,0.5)"/>
          </g>
        </g>
        <g id="Ellipse_31" data-name="Ellipse 31" transform="translate(179 271)" fill="none" stroke="rgba(112,112,112,0.5)" stroke-width="2">
          <circle cx="3.75" cy="3.75" r="3.75" stroke="none"/>
          <circle cx="3.75" cy="3.75" r="2.75" fill="none"/>
        </g>
      </g>
      <g id="Group_469" data-name="Group 469" transform="translate(1)">
        <g id="Group_468" data-name="Group 468" transform="translate(-6012.92 -4045.63)">
          <g id="Group_372" data-name="Group 372" transform="translate(4641.272 581.195)">
            <g id="Path_24" data-name="Path 24" transform="translate(-0.272 -0.195)" fill="none">
              <path d="M4,0H17a4,4,0,0,1,4,4V14a4,4,0,0,1-4,4H4a4,4,0,0,1-4-4V4A4,4,0,0,1,4,0Z" stroke="none"/>
              <path d="M 4 2 C 2.897199630737305 2 2 2.897199630737305 2 4 L 2 14 C 2 15.1028003692627 2.897199630737305 16 4 16 L 17 16 C 18.1028003692627 16 19 15.1028003692627 19 14 L 19 4 C 19 2.897199630737305 18.1028003692627 2 17 2 L 4 2 M 4 0 L 17 0 C 19.20914077758789 0 21 1.790859222412109 21 4 L 21 14 C 21 16.20914077758789 19.20914077758789 18 17 18 L 4 18 C 1.790859222412109 18 0 16.20914077758789 0 14 L 0 4 C 0 1.790859222412109 1.790859222412109 0 4 0 Z" stroke="none" fill="rgba(112,112,112,0.5)"/>
            </g>
            <path id="Path_7" data-name="Path 7" d="M.811-.752A1.718,1.718,0,0,0,2.325-1.961a2.168,2.168,0,0,1,1.968-1.55c2.251,0,2.158,4.7,4.709,3.828s3.744-8.28,5.493-7.331c1.214.658,1.458,3.353,1.78,5.606A1.539,1.539,0,0,0,17.807.124" transform="translate(0.915 12.359)" fill="none" stroke="rgba(112,112,112,0.51)" stroke-width="2"/>
            <circle id="Ellipse_29" data-name="Ellipse 29" cx="1.5" cy="1.5" r="1.5" transform="translate(2.728 2.805)" fill="rgba(112,112,112,0.5)"/>
          </g>
        </g>
        <path id="Path_16" data-name="Path 16" d="M-1373.411-3450.608s-3.03,1.326-3.747-.339-3.606-14.421-2.286-16.707a1.891,1.891,0,0,1,.679-.566c2.863-1.927,19.167-3.417,20.161-2.424,1.059,1.059.974,4.186.974,4.186" transform="translate(1.975 1.878)" fill="none" stroke="rgba(112,112,112,0.5)" stroke-width="2"/>
      </g>
    </g>
  </g>
</svg>
